{
    "asset" : {
        "generator" : "Khronos glTF Blender I/O v1.8.19",
        "version" : "2.0"
    },
    "scene" : 0,
    "scenes" : [
        {
            "extras" : {
                "ezlattice_mode" : "",
                "ezlattice_object" : "",
                "ezlattice_objects" : "",
                "ezlattice_lattice" : "",
                "flip_fluid_material_library" : {
                    "library_path" : "C:\\Users\\Benjamin\\AppData\\Roaming\\Blender Foundation\\Blender\\2.93\\scripts\\addons\\flip_fluids_addon\\materials\\material_library",
                    "material_list" : [
                        {
                            "name" : "FF Apple Juice",
                            "description" : "",
                            "path" : "C:\\Users\\Benjamin\\AppData\\Roaming\\Blender Foundation\\Blender\\2.93\\scripts\\addons\\flip_fluids_addon\\materials\\material_library\\surface\\FF Apple Juice.blend",
                            "type" : 0,
                            "icon_id" : 1107,
                            "imported_icon_id" : 1108
                        },
                        {
                            "name" : "FF Beer",
                            "description" : "",
                            "path" : "C:\\Users\\Benjamin\\AppData\\Roaming\\Blender Foundation\\Blender\\2.93\\scripts\\addons\\flip_fluids_addon\\materials\\material_library\\surface\\FF Beer.blend",
                            "type" : 0,
                            "icon_id" : 1109,
                            "imported_icon_id" : 1110
                        },
                        {
                            "name" : "FF Blood",
                            "description" : "",
                            "path" : "C:\\Users\\Benjamin\\AppData\\Roaming\\Blender Foundation\\Blender\\2.93\\scripts\\addons\\flip_fluids_addon\\materials\\material_library\\surface\\FF Blood.blend",
                            "type" : 0,
                            "icon_id" : 1111,
                            "imported_icon_id" : 1112
                        },
                        {
                            "name" : "FF Caramel",
                            "description" : "",
                            "path" : "C:\\Users\\Benjamin\\AppData\\Roaming\\Blender Foundation\\Blender\\2.93\\scripts\\addons\\flip_fluids_addon\\materials\\material_library\\surface\\FF Caramel.blend",
                            "type" : 0,
                            "icon_id" : 1113,
                            "imported_icon_id" : 1114
                        },
                        {
                            "name" : "FF Chocolate",
                            "description" : "",
                            "path" : "C:\\Users\\Benjamin\\AppData\\Roaming\\Blender Foundation\\Blender\\2.93\\scripts\\addons\\flip_fluids_addon\\materials\\material_library\\surface\\FF Chocolate.blend",
                            "type" : 0,
                            "icon_id" : 1115,
                            "imported_icon_id" : 1116
                        },
                        {
                            "name" : "FF Coffee",
                            "description" : "",
                            "path" : "C:\\Users\\Benjamin\\AppData\\Roaming\\Blender Foundation\\Blender\\2.93\\scripts\\addons\\flip_fluids_addon\\materials\\material_library\\surface\\FF Coffee.blend",
                            "type" : 0,
                            "icon_id" : 1117,
                            "imported_icon_id" : 1118
                        },
                        {
                            "name" : "FF Copper",
                            "description" : "",
                            "path" : "C:\\Users\\Benjamin\\AppData\\Roaming\\Blender Foundation\\Blender\\2.93\\scripts\\addons\\flip_fluids_addon\\materials\\material_library\\surface\\FF Copper.blend",
                            "type" : 0,
                            "icon_id" : 1119,
                            "imported_icon_id" : 1120
                        },
                        {
                            "name" : "FF Milk",
                            "description" : "",
                            "path" : "C:\\Users\\Benjamin\\AppData\\Roaming\\Blender Foundation\\Blender\\2.93\\scripts\\addons\\flip_fluids_addon\\materials\\material_library\\surface\\FF Milk.blend",
                            "type" : 0,
                            "icon_id" : 1121,
                            "imported_icon_id" : 1122
                        },
                        {
                            "name" : "FF Orange Juice",
                            "description" : "",
                            "path" : "C:\\Users\\Benjamin\\AppData\\Roaming\\Blender Foundation\\Blender\\2.93\\scripts\\addons\\flip_fluids_addon\\materials\\material_library\\surface\\FF Orange Juice.blend",
                            "type" : 0,
                            "icon_id" : 1123,
                            "imported_icon_id" : 1124
                        },
                        {
                            "name" : "FF Water (clear)",
                            "description" : "",
                            "path" : "C:\\Users\\Benjamin\\AppData\\Roaming\\Blender Foundation\\Blender\\2.93\\scripts\\addons\\flip_fluids_addon\\materials\\material_library\\surface\\FF Water (clear).blend",
                            "type" : 0,
                            "icon_id" : 1125,
                            "imported_icon_id" : 1126
                        },
                        {
                            "name" : "FF Water (iced)",
                            "description" : "",
                            "path" : "C:\\Users\\Benjamin\\AppData\\Roaming\\Blender Foundation\\Blender\\2.93\\scripts\\addons\\flip_fluids_addon\\materials\\material_library\\surface\\FF Water (iced).blend",
                            "type" : 0,
                            "icon_id" : 1127,
                            "imported_icon_id" : 1128
                        },
                        {
                            "name" : "FF Water (ocean 1)",
                            "description" : "",
                            "path" : "C:\\Users\\Benjamin\\AppData\\Roaming\\Blender Foundation\\Blender\\2.93\\scripts\\addons\\flip_fluids_addon\\materials\\material_library\\surface\\FF Water (ocean 1).blend",
                            "type" : 0,
                            "icon_id" : 1129,
                            "imported_icon_id" : 1130
                        },
                        {
                            "name" : "FF Water (ocean 2)",
                            "description" : "",
                            "path" : "C:\\Users\\Benjamin\\AppData\\Roaming\\Blender Foundation\\Blender\\2.93\\scripts\\addons\\flip_fluids_addon\\materials\\material_library\\surface\\FF Water (ocean 2).blend",
                            "type" : 0,
                            "icon_id" : 1131,
                            "imported_icon_id" : 1132
                        },
                        {
                            "name" : "FF Water (ocean volumetric)",
                            "description" : "",
                            "path" : "C:\\Users\\Benjamin\\AppData\\Roaming\\Blender Foundation\\Blender\\2.93\\scripts\\addons\\flip_fluids_addon\\materials\\material_library\\surface\\FF Water (ocean volumetric).blend",
                            "type" : 0,
                            "icon_id" : 1133,
                            "imported_icon_id" : 1134
                        },
                        {
                            "name" : "FF Wax",
                            "description" : "",
                            "path" : "C:\\Users\\Benjamin\\AppData\\Roaming\\Blender Foundation\\Blender\\2.93\\scripts\\addons\\flip_fluids_addon\\materials\\material_library\\surface\\FF Wax.blend",
                            "type" : 0,
                            "icon_id" : 1135,
                            "imported_icon_id" : 1136
                        },
                        {
                            "name" : "FF Wine Red",
                            "description" : "",
                            "path" : "C:\\Users\\Benjamin\\AppData\\Roaming\\Blender Foundation\\Blender\\2.93\\scripts\\addons\\flip_fluids_addon\\materials\\material_library\\surface\\FF Wine Red.blend",
                            "type" : 0,
                            "icon_id" : 1137,
                            "imported_icon_id" : 1138
                        },
                        {
                            "name" : "FF Bubble",
                            "description" : "",
                            "path" : "C:\\Users\\Benjamin\\AppData\\Roaming\\Blender Foundation\\Blender\\2.93\\scripts\\addons\\flip_fluids_addon\\materials\\material_library\\whitewater\\FF Bubble.blend",
                            "type" : 1,
                            "icon_id" : 1139,
                            "imported_icon_id" : 1140
                        },
                        {
                            "name" : "FF Foam",
                            "description" : "",
                            "path" : "C:\\Users\\Benjamin\\AppData\\Roaming\\Blender Foundation\\Blender\\2.93\\scripts\\addons\\flip_fluids_addon\\materials\\material_library\\whitewater\\FF Foam.blend",
                            "type" : 1,
                            "icon_id" : 1141,
                            "imported_icon_id" : 1142
                        },
                        {
                            "name" : "FF Spray",
                            "description" : "",
                            "path" : "C:\\Users\\Benjamin\\AppData\\Roaming\\Blender Foundation\\Blender\\2.93\\scripts\\addons\\flip_fluids_addon\\materials\\material_library\\whitewater\\FF Spray.blend",
                            "type" : 1,
                            "icon_id" : 1143,
                            "imported_icon_id" : 1144
                        }
                    ]
                },
                "flip_fluid" : {},
                "NWBusyDrawing" : "",
                "NWLazySource" : "Noise Texture.001",
                "NWLazyTarget" : "Texture Coordinate",
                "vps_draw" : {}
            },
            "name" : "Scene",
            "nodes" : [
                0
            ]
        }
    ],
    "nodes" : [
        {
            "extras" : {
                "flip_fluid" : {}
            },
            "mesh" : 0,
            "name" : "CandyCorn"
        }
    ],
    "materials" : [
        {
            "doubleSided" : true,
            "extras" : {
                "flip_fluid_material_library" : {}
            },
            "name" : "CandyCorn",
            "pbrMetallicRoughness" : {
                "metallicFactor" : 0
            }
        }
    ],
    "meshes" : [
        {
            "name" : "CandyCorn.Geo",
            "primitives" : [
                {
                    "attributes" : {
                        "POSITION" : 0,
                        "NORMAL" : 1,
                        "TANGENT" : 2,
                        "TEXCOORD_0" : 3
                    },
                    "indices" : 4,
                    "material" : 0
                }
            ]
        }
    ],
    "accessors" : [
        {
            "bufferView" : 0,
            "componentType" : 5126,
            "count" : 12557,
            "max" : [
                0.614291250705719,
                1.9393055438995361,
                0.31822100281715393
            ],
            "min" : [
                -0.6092516183853149,
                -0.07253284007310867,
                -0.31822100281715393
            ],
            "type" : "VEC3"
        },
        {
            "bufferView" : 1,
            "componentType" : 5126,
            "count" : 12557,
            "type" : "VEC3"
        },
        {
            "bufferView" : 2,
            "componentType" : 5126,
            "count" : 12557,
            "type" : "VEC4"
        },
        {
            "bufferView" : 3,
            "componentType" : 5126,
            "count" : 12557,
            "type" : "VEC2"
        },
        {
            "bufferView" : 4,
            "componentType" : 5123,
            "count" : 66048,
            "type" : "SCALAR"
        }
    ],
    "bufferViews" : [
        {
            "buffer" : 0,
            "byteLength" : 150684,
            "byteOffset" : 0
        },
        {
            "buffer" : 0,
            "byteLength" : 150684,
            "byteOffset" : 150684
        },
        {
            "buffer" : 0,
            "byteLength" : 200912,
            "byteOffset" : 301368
        },
        {
            "buffer" : 0,
            "byteLength" : 100456,
            "byteOffset" : 502280
        },
        {
            "buffer" : 0,
            "byteLength" : 132096,
            "byteOffset" : 602736
        }
    ],
    "buffers" : [
        {
            "byteLength" : 734832,
            "uri" : "data:application/octet-stream;base64,"
        }
    ]
}
